<?xml version="1.0" encoding="UTF-8"?>
<svg width="1920px" height="1089px" viewBox="0 0 1920 1089" version="1.1" xmlns="http://www.w3.org/2000/svg" xmlns:xlink="http://www.w3.org/1999/xlink">
    <!-- Generator: Sketch 58 (84663) - https://sketch.com -->
    <title>BlankMap-Eurasia</title>
    <desc>Created with Sketch.</desc>
    <defs>
        <linearGradient x1="22.065101%" y1="39.0413179%" x2="77.934899%" y2="39.0413179%" id="linearGradient-1">
            <stop stop-color="#FFE02F" offset="0%"></stop>
            <stop stop-color="#FFBE15" offset="100%"></stop>
        </linearGradient>
    </defs>
    <g id="Page-1" stroke="none" stroke-width="1" fill="none" fill-rule="evenodd">
        <g id="Artboard" transform="translate(0.000000, -648.000000)" fill-rule="nonzero">
            <g id="Group-2" transform="translate(-360.000000, -2.000000)">
                <g id="Map" transform="translate(0.000000, 650.000000)">
                    <g id="BlankMap-Eurasia">
                        <path d="M888.431493,1081.18691 L876.592693,1088 L865.910046,1075.26978 C860.034624,1068.26812 855.227441,1060.78507 855.227441,1058.64077 C855.227441,1056.49646 847.618549,1046.88014 838.318774,1037.27118 L821.410064,1019.80034 L814.560767,996.043552 L807.711428,972.286809 L797.525479,959.602881 C791.923199,952.626721 778.520853,935.644717 767.742493,921.865067 L748.145454,896.811181 L741.072727,875.357331 L734,853.903482 L735.958713,850.52719 L737.917426,847.150897 L742.941082,851.331604 L747.964779,855.512269 L760.869204,847.319466 L773.773629,839.126621 L778.896793,821.980361 L784.019957,804.8341 L793.231946,801.41705 L802.443934,798 L814.433388,801.447914 C821.027589,803.344288 834.478214,809.629471 844.323641,815.415075 C854.169069,821.200638 864.792306,829.036853 867.930868,832.828924 C871.06943,836.620996 880.865187,843.421019 889.699213,847.940133 L905.761089,856.156655 L917.388265,855.719863 L929.01544,855.283071 L944.89116,861.257835 L960.766922,867.232599 L971.335471,881.596598 L981.904021,895.960596 L986.241406,912.112437 L990.578791,928.264278 L1000.56505,932.071401 L1010.55135,935.878566 L1016.16442,947.582915 L1021.7775,959.28722 L1036.10451,968.957997 L1050.43157,978.628773 L1060.15075,978.628773 C1065.49634,978.628773 1074.66629,980.820091 1080.52847,983.498387 L1091.18696,988.367958 L1093.59346,995.971 L1096,1003.574 L1089.15871,1016.83978 L1082.31739,1030.10552 L1063.38667,1038.50237 L1044.45596,1046.89921 L1027.69437,1048.57125 L1010.93277,1050.24333 L992.191966,1058.55591 L973.451205,1066.86849 L963.259565,1077.08797 L953.067924,1087.30746 L926.669108,1080.84064 L900.27025,1074.37383 L888.431493,1081.18691 Z" id="path2384-path" stroke="#979797"></path>
                        <path d="M1072.78879,1085.45381 L1059.18404,1088 L1050.47269,1070.94668 C1045.68144,1061.56735 1042.36496,1053.35207 1043.10272,1052.69056 C1043.84049,1052.029 1054.12901,1047.36332 1065.96613,1042.3224 L1087.48817,1033.15703 L1094.69525,1017.19544 L1101.90237,1001.23385 L1097.14656,992.359144 C1094.53089,987.478088 1090.52098,983.484485 1088.2357,983.484485 L1084.08061,983.484485 L1091.00504,969.868738 C1094.8135,962.380078 1099.77117,953.946066 1102.02209,951.126517 L1106.11472,946 L1119.32632,952.820902 C1126.59268,956.572438 1139.61689,965.321959 1148.26896,972.264314 C1156.92103,979.20671 1164,986.699351 1164,988.914696 C1164,991.13004 1157.86489,1000.04995 1150.36643,1008.73671 C1142.86797,1017.42343 1131.37198,1033.23856 1124.81981,1043.88142 L1112.90676,1063.23208 L1099.65015,1073.06985 L1086.39354,1082.90759 L1072.78879,1085.45381 Z" id="path2384-path" stroke="#979797"></path>
                        <path d="M2220.78938,969.584012 L2215.57919,987 L2210.92104,983.935725 C2208.35892,982.250358 2203.95394,976.504569 2201.13145,971.167226 L2196,961.463001 L2203.71178,948.30824 C2207.95292,941.073124 2213.5598,934.443929 2216.17103,933.576719 L2220.91893,932 L2223.45946,942.083991 L2226,952.167981 L2220.78938,969.584012 Z" id="path2384-path" stroke="#979797"></path>
                        <path d="M1080.3606,978.967791 C1078.61275,978.701875 1069.9089,977.087876 1061.01875,975.381133 L1044.85476,972.277959 L1033.7441,964.047197 C1027.63321,959.520308 1021.81587,953.382994 1020.8167,950.408763 L1019,945.001049 L1028.41082,949.998348 L1037.8216,954.995647 L1051.97678,952.360823 L1066.13191,949.725957 L1083.3096,930.362978 L1100.4873,911 L1100.83153,914.745073 C1101.02085,916.804845 1101.58622,924.165838 1102.0879,931.102794 L1103,943.715442 L1093.26927,957.965841 C1087.91735,965.803551 1083.5385,973.844113 1083.5385,975.833759 C1083.5385,977.823404 1082.10844,979.233708 1080.3606,978.967791 Z" id="path2384-path" stroke="#979797"></path>
                        <polygon id="path2384-path" stroke="#979797" points="1001.7507 919.575018 994.351363 921 991.675681 914.027321 989 907.054642 993.527321 902.527321 998.054642 898 1005.02732 900.675681 1012 903.351363 1010.57502 910.750699 1009.15004 918.150036"></polygon>
                        <path d="M1628.73319,906.97925 C1627.27668,906.70951 1622.47216,905.562819 1618.0565,904.431053 C1613.64083,903.299329 1593.70218,897.093113 1573.74837,890.639522 C1553.79457,884.185931 1528.36327,874.447771 1517.23438,868.999194 L1497,859.092636 L1498.24518,848.401 L1499.49037,837.709364 L1513.60415,836.354661 L1527.71793,835 L1543.51019,845.96497 C1552.19593,851.995728 1565.73983,858.779729 1573.60777,861.040556 L1587.91309,865.15113 L1595.38424,862.775347 L1602.85535,860.399564 L1619.61175,872.307905 C1628.8278,878.857469 1637.41037,886.835597 1638.68408,890.037004 L1641,895.857763 L1636.19067,901.663724 C1633.54552,904.857014 1630.18966,907.24899 1628.73319,906.97925 Z" id="path2384-path" stroke="#979797"></path>
                        <path d="M1680.15789,902.994714 C1677.84211,902.879601 1671.68421,901.013548 1666.47368,898.847958 L1657,894.910485 L1657.06446,889.327998 C1657.09992,886.257658 1658.88312,880.877793 1661.02707,877.372777 L1664.92522,871 L1676.31579,875.19591 L1687.70653,879.391821 L1692.35326,887.134804 L1697,894.877745 L1690.68421,899.040871 C1687.21053,901.33063 1682.47368,903.109827 1680.15789,902.994714 Z" id="path2384-path" stroke="#979797"></path>
                        <path d="M734.648536,847.726451 L730.297028,852 L722.148514,834.253531 L714,816.507019 L719.290782,814.77502 L724.581607,813.043022 L727.271674,796.521532 L729.961785,780 L732.990618,780 L736.019451,780 L735.31928,787.382954 C734.934163,791.443578 733.120136,801.161107 731.288153,808.977461 L727.95724,823.189056 L733.47862,833.321 L739,843.452944 L734.648536,847.726451 Z" id="path2384-path" stroke="#979797"></path>
                        <path d="M741.837074,825.481628 C743.947482,820.796523 745.808132,812.33139 745.9718,806.670207 C746.135511,801.009067 745.569469,797.1758 744.713906,798.151835 C743.858343,799.127913 741.997736,807.593045 740.57918,816.963255 L738,834 L741.837074,825.481628 Z" id="path2384-path" stroke="#979797"></path>
                        <path d="M744.940114,770.020099 L738.880229,781 L735.940136,776.483774 L733,771.967507 L735.771626,761.483753 L738.543296,751 L742.154521,751 C744.140724,751 746.943493,752.809052 748.382873,755.020119 L751,759.040197 L744.940114,770.020099 Z" id="path2384-path" stroke="#979797"></path>
                        <path d="M2265.82884,747.151516 L2248.55131,756 L2239.31332,733.900083 C2234.23255,721.74514 2226.45831,707.795768 2222.03746,702.901508 L2214,694.00285 L2219.35316,689.787036 C2222.29734,687.468286 2228.15524,684.317644 2232.37044,682.785569 L2240.03456,680 L2256.13825,691.662445 L2272.24195,703.324891 L2279.36963,719.259256 C2283.28949,728.023115 2285.73393,735.893214 2284.80163,736.748327 C2283.8689,737.603397 2275.33129,742.284843 2265.82884,747.151516 Z" id="path2384-path" stroke="#979797"></path>
                        <path d="M687.839625,750.990754 C685.071712,751.151036 681.500436,749.207919 679.903511,746.67272 L677,742.063225 L682.82329,738.44432 C686.02614,736.453897 690.868001,734.796808 693.582968,734.761899 C696.297976,734.72699 702.002486,733.416293 706.259656,731.849212 L714,729 L708.200669,735.995149 L702.401295,742.990298 L706.087887,743.281716 C708.115481,743.441957 705.971431,745.176492 701.323312,747.136235 C696.675192,749.095978 690.607538,750.830514 687.839625,750.990754 Z" id="path2384-path" stroke="#979797"></path>
                        <path d="M565.916175,746.798448 L554.485854,746.596852 L541.742927,740.45788 L529,734.318953 L545.990569,734.016983 C555.335383,733.850915 567.260384,734.921776 572.490548,736.39659 L582,739.078167 L579.673269,743.039083 L577.346538,747 L565.916175,746.798448 Z" id="path2384-path" stroke="#979797"></path>
                        <polygon id="path2384-path" stroke="#979797" points="378.750699 742.575018 371.351363 744 368.675681 737.027321 366 730.054642 370.527321 725.527321 375.054642 721 382.027321 723.675681 389 726.351363 387.575018 733.750699 386.150036 741.150036"></polygon>
                        <path d="M516.188359,713 C515.366868,713 511.709862,709.992291 508.061683,706.316193 C504.413505,702.640137 499.553077,696.101021 497.260697,691.78487 L493.092713,683.937354 L502.542609,682.584904 L511.992464,681.232454 L511.693553,676.996781 L511.394599,672.761108 L503.286545,671.464611 C498.82709,670.751535 490.138869,668.205472 483.979433,665.806642 L472.780374,661.445212 L468.57086,650.160447 C466.255612,643.953874 463.379995,633.067813 462.180652,625.969207 L460,613.06273 L463.699293,607.031386 L467.398545,601 L470.50796,604.13317 C472.218114,605.856411 476.023293,614.318353 478.963896,622.937524 L484.310459,638.608666 L479.235695,645.303274 C476.444569,648.985345 478.241272,647.715447 483.228309,642.4813 L492.295728,632.964717 L507.432587,626.591723 L522.569446,620.21873 L547.284744,620.909018 L572,621.599305 L570.159286,626.432801 L568.318572,631.266339 L558.431805,629.361896 L548.545038,627.457453 L540.514791,635.549155 L532.484544,643.640857 L527.351562,641.916769 L522.218579,640.192681 L516.32657,645.119997 L510.434561,650.047355 L520.344027,668.827142 L530.253492,687.606887 L523.967741,700.303444 C520.51057,707.286543 517.00985,713 516.188359,713 Z" id="path2384-path" stroke="#979797" fill="#67B402"></path>
                        <path d="M392.841857,701.740561 L389.98302,709 L371.491531,699.131559 L353,689.263119 L362.65345,686.631581 L372.306899,684 L384.299455,686.500311 C390.895336,687.875445 396.158934,690.233701 395.996332,691.74085 C395.833771,693.247999 394.414257,697.747876 392.841857,701.740561 Z" id="path2384-path" stroke="#979797" fill="#67B402"></path>
                        <path d="M413.44429,675.682803 L403.731835,685 L405.990593,672.338529 L408.249394,659.677057 L398.291123,646.578934 L388.332895,633.480768 L375.871782,628.327507 L363.410712,623.174246 L365.340166,615.807886 L367.26962,608.441527 L360.291535,602.659539 L353.313491,596.877552 L345.981455,601.449102 L338.64942,606.020695 L329.871995,599.084952 C325.044408,595.270304 318.106143,586.206885 314.453652,578.944054 L307.812691,565.738899 L300.952124,563.110504 L294.091598,560.482067 L287.302175,564.275529 L280.512753,568.06899 L270.756376,561.686595 C265.390361,558.176329 261,553.759122 261,551.870621 C261,549.98212 263.989274,545.452479 267.642863,541.804793 L274.285726,535.172588 L283.988247,535.172588 L293.690726,535.172588 L315.589943,526.086294 L337.489118,517 L342.362741,521.865803 C345.043255,524.542016 350.369745,526.731607 354.199485,526.731607 L361.162564,526.731607 L366.058126,536.227711 L370.953646,545.723814 L368.70516,536.769622 L366.456631,527.815429 L384.398741,523.268526 C394.266886,520.767758 403.148851,519.528369 404.136427,520.514402 C405.124002,521.500393 403.42168,525.32707 400.35344,529.018142 C397.285244,532.709214 389.268432,538.572066 382.538318,542.046754 L370.301759,548.364364 L364.697832,543.72098 L359.093864,539.077597 L341.380915,548.295275 L323.667923,557.512995 L321.346812,563.55201 L319.025701,569.591025 L325.819901,576.374367 L332.614143,583.157665 L343.272535,577.462578 L353.930969,571.767532 L374.526833,593.214166 L395.12274,614.660799 L421.06137,627.7336 C435.327612,634.923627 447,641.879544 447,643.191188 L447,645.576019 L434.421327,642.817717 L421.842655,640.059415 L417.671647,642.633071 L413.500639,645.206768 L418.328692,655.786187 L423.156745,666.365606 L413.44429,675.682803 Z" id="path2384-path" stroke="#979797" fill="#67B402"></path>
                        <path d="M887.449695,669.251257 L874.715028,672 L869.533553,666.775931 C866.683748,663.9027 864.352079,658.732099 864.352079,655.285726 L864.352079,649.019546 L874.107734,657.198323 C879.473344,661.696625 876.469124,658.281108 867.431716,649.608244 L851,633.839473 L853.709258,629.419715 C855.199375,626.988889 858.953081,625 862.050887,625 L867.683216,625 L887.341608,643.721779 L907,662.443516 L903.592181,664.473036 C901.7179,665.589271 894.453768,667.739455 887.449695,669.251257 Z" id="path2384-path" stroke="#979797" fill="#67B402"></path>
                        <path d="M590.810943,632.975277 L573,637 L574.487163,625.817062 L575.974369,614.634124 L582.721984,613.317083 L589.469641,612 L600.346254,619.167336 C606.328412,623.10938 610.637659,626.923266 609.922376,627.642635 C609.207094,628.362003 600.606948,630.761686 590.810943,632.975277 Z" id="path2384-path" stroke="#979797" fill="#67B402"></path>
                        <path d="M502.689317,626.162505 L485.378591,633 L482.689295,622.22565 L480,611.451258 L485.873451,607.710937 C489.103861,605.653729 493.654817,603.983875 495.986662,604 C498.318507,604.01636 504.675455,607.471089 510.11319,611.677293 L520,619.32501 L502.689317,626.162505 Z" id="path2384-path" stroke="#979797" fill="#67B402"></path>
                        <polygon id="path2384-path" stroke="#979797" fill="#0D8B40" points="352.750699 624.575018 345.351363 626 342.675681 619.027321 340 612.054642 344.527321 607.527321 349.054642 603 356.027321 605.675681 363 608.351363 361.575018 615.750699 360.150036 623.150036"></polygon>
                        <path d="M554.56578,619.96645 C552.238342,619.608168 543.752544,618.517364 535.708409,617.54243 L521.082787,615.769863 L508.925349,607.109344 L496.76787,598.448782 L486.404887,603.172525 L476.041862,607.896225 L472.03359,597.34913 L468.025276,586.802035 L463.859204,586.802035 L459.693089,586.802035 L460.192938,575.159902 C460.46783,568.756729 459.411892,557.326271 457.846372,549.758884 L455,536 L462.867884,536 L470.735768,536 L478.787139,544.900432 C483.215408,549.795674 491.712758,556.322507 497.670196,559.40454 L508.501925,565.008216 L507.839028,584.648452 L507.176131,604.288688 L510.762841,598.720488 L514.34955,593.152289 L511.92948,581.621666 L509.509367,570.091044 L522.81292,574.730624 L536.116473,579.370247 L551.688686,576.956516 C560.253405,575.628974 571.069434,573.399738 575.72431,572.002682 L584.187723,569.462581 L592.093861,575.266628 L600,581.070676 L597.047242,594.520091 L594.094527,607.969549 L588.566904,607.969549 C585.526719,607.969549 577.584907,610.815437 570.918404,614.293725 C564.251901,617.772013 556.893219,620.324731 554.56578,619.96645 Z" id="path2384-path" stroke="#979797" fill="#67B402"></path>
                        <polygon id="path2384-path" stroke="#979797" fill="#0D8B40" points="462.491258 603.565807 455.982517 613 451.491237 604.480075 447 595.960149 452.317064 591.480096 457.634171 587 463.317085 590.565785 469 594.131571"></polygon>
                        <path d="M443.628654,593.994503 C441.959442,593.795433 435.133976,591.990794 428.460858,589.984137 L416.327962,586.335701 L405.296994,575.715733 L394.265984,565.095808 L380.132992,560.144954 L366,555.194143 L382.346862,546.768533 C391.337677,542.134432 400.715942,535.565756 403.187497,532.171462 L407.681187,526 L421.484426,533.172749 L435.287623,540.345497 L442.907597,538.343093 L450.527529,536.340731 L452.628562,541.842648 L454.729637,547.344565 L448.949282,549.573533 L443.168927,551.802459 L429.407965,547.83664 L415.647003,543.870778 L408.453949,551.219186 L401.260936,558.567595 L413.594826,572.317987 C420.378476,579.880665 425.928758,584.721121 425.928758,583.074499 C425.928758,581.427836 421.141726,575.059619 415.290895,568.922893 L404.652991,557.765125 L410.379546,552.989342 L416.106102,548.213517 L429.637493,552.113232 L443.168927,556.012906 L448.663189,553.894293 L454.157451,551.775639 L456.578725,561.0798 L459,570.38396 L452.831777,582.370176 C449.439261,588.962599 445.297866,594.193531 443.628654,593.994503 Z" id="path2384-path" stroke="#979797" fill="#67B402"></path>
                        <path d="M606.374111,566.518966 L600.748221,577 L591.44147,570.75527 L582.134718,564.510583 L566.683547,569.602247 L551.232375,574.693912 L535.850414,572.633868 L520.468496,570.573824 L501.081734,557.50956 C490.419046,550.324225 479.288639,541.55016 476.347486,538.011661 L471,531.578027 L477.694813,531.578027 L484.389668,531.578027 L494.037154,517.520358 L503.684641,503.46269 L524.464772,504.374515 L545.244903,505.286298 L557.966984,501.64317 L570.689065,498 L577.685746,504.32239 L584.682426,510.644738 L589.673857,527.279653 L594.665289,543.914525 L603.332644,549.976207 L612,556.037931 L606.374111,566.518966 Z" id="path2384-path" stroke="#979797" fill="#0D8B40"></path>
                        <path d="M691.315755,561.997641 C690.089319,562.095426 684.767493,559.141187 679.489418,555.432656 L669.892968,548.689954 L674.79774,542.761504 L679.702553,536.833054 L671.828854,533.865289 C667.498347,532.233053 661.915069,528.169894 659.421574,524.83605 L654.887993,518.774577 L642.083737,525.416652 L629.279523,532.058771 L622.166677,542.948339 L615.053873,553.837949 L607.082315,549.558314 L599.110757,545.27868 L594.024343,529.344457 L588.937971,513.410192 L580.267362,503.869172 L571.596795,494.328153 L580.442325,494.328153 C585.307361,494.328153 592.367114,495.513487 596.130711,496.962238 L602.973567,499.596322 L609.433142,512.126946 L615.892718,524.657569 L609.179341,534.935579 C605.487014,540.588484 603.417084,545.213589 604.579562,545.213589 C605.742041,545.213589 609.714208,540.588484 613.406536,534.935579 L620.119912,524.657569 L613.300644,511.429222 L606.481419,498.200917 L595.907938,493.368199 L585.334457,488.535482 L569.691302,494.27608 L554.048147,500.016678 L529.74178,500.65546 L505.435413,501.294285 L505.091996,498.871332 C504.903125,497.538685 504.355154,490.980867 503.874268,484.298379 L503,472.148337 L514.75012,461.023296 L526.500283,449.898256 L524.326787,443.028722 L522.15329,436.159189 L528.78318,430.639603 L535.413026,425.12006 L568.917007,432.342314 L602.42103,439.564527 L625.141607,428.782285 C637.637954,422.852011 651.195496,418 655.269497,418 L662.67681,418 L673.936787,430.091652 C680.129753,436.742039 690.87972,445.111166 697.825549,448.689727 C704.771379,452.268245 721.241246,457.425993 734.425273,460.151332 L758.396213,465.106556 L765.198106,475.520133 L772,485.933668 L767.306884,494.73036 L762.613769,503.527053 L749.215634,509.18369 C741.846663,512.294825 726.568695,518.835851 715.264586,523.719284 L694.711671,532.598241 L699.930227,538.905915 L705.148741,545.213589 L714.142308,545.391348 L723.135917,545.569066 L708.340737,553.694495 C700.203388,558.163466 692.542148,561.899898 691.315755,561.997641 Z" id="path2384-path" stroke="#979797" fill="#67B402"></path>
                        <path d="M2379.17542,531 L2371.35085,531 L2364.80831,523.617674 C2361.20986,519.557394 2352.53751,504.841845 2345.53653,490.916458 L2332.8077,465.597568 L2304.40385,434.088914 L2276,402.580302 L2281.39917,400.790151 L2286.79834,399 L2295.54957,410.592572 C2300.36306,416.968498 2309.0723,426.720424 2314.90363,432.263581 C2320.73495,437.806695 2333.94428,448.527267 2344.25745,456.087064 C2354.57063,463.646862 2363.79515,472.206353 2364.75657,475.108113 L2366.50385,480.384072 L2360.21705,477.984394 L2353.93024,475.584674 L2351.28473,479.84242 L2348.63922,484.100166 L2367.81982,505.581638 C2378.36879,517.396482 2387,527.948948 2387,529.031577 C2387,530.114205 2383.47873,531 2379.17542,531 Z" id="path2384-path" stroke="#979797" fill="#0D8B40"></path>
                        <path d="M385.016835,519.879503 L363.899489,526 L355.45255,523.176846 C350.806734,521.624065 342.729349,518.875613 337.502806,517.069187 L328,513.784724 L328,509.992197 L328,506.199671 L336.122872,506.199671 L344.245786,506.199671 L356.184351,496.022357 L368.122958,485.845042 L381.307151,482.922499 L394.491344,480 L405.193066,482.730334 L415.894746,485.460667 L417.947394,493.439625 L420,501.418582 L413.067091,507.588752 L406.134181,513.758964 L385.016835,519.879503 Z" id="path2384-path" stroke="#979797" fill="#67B402"></path>
                        <path d="M434.001182,497 L421,497 L421.133948,491.796019 L421.267939,486.592039 L432.857633,478.296019 L444.447368,470 L465.137582,470.866359 C476.517187,471.342835 489.466529,472.860482 493.913898,474.238913 L502,476.745192 L502,482.898045 L502,489.05094 L487.596836,486.412231 L473.193672,483.773563 L460.098018,490.386781 L447.002364,497 L434.001182,497 Z" id="path2384-path" stroke="#979797" fill="#0D8B40"></path>
                        <path d="M426.347535,481.242329 L419.25514,485 L408.79012,481.0007 L398.3251,477.001443 L384.79002,479.562238 L371.25494,482.123034 L358.62747,472.677036 C351.682338,467.48175 346,461.972664 346,460.434628 C346,458.896593 353.720841,454.569602 363.1574,450.819088 L380.314842,444 L389.31995,449.760879 C394.272793,452.929366 404.918063,456.881907 412.976128,458.544294 C421.034193,460.20668 429.961065,463.4686 432.813578,465.793019 L438,470.019208 L435.719965,473.751933 C434.465921,475.804906 430.24835,479.175591 426.347535,481.242329 Z" id="path2384-path" stroke="#979797" fill="#B40202"></path>
                        <path d="M496.605369,471.98877 C495.847185,471.697654 486.687748,469.980729 476.251121,468.173392 L457.275435,464.887342 L448.528909,466.860113 L439.78234,468.832927 L434.307897,462.217778 L428.833454,455.602586 L421.97037,455.363908 C418.195642,455.232602 408.608831,452.853858 400.666368,450.077811 L386.225491,445.030391 L385.379302,436.572635 C384.91385,431.920869 382.613153,420.083478 380.266535,410.267279 L376,392.419679 L399.212746,383.70984 L422.425449,375 L431.416804,378.123788 C436.362036,379.841896 444.203296,381.743454 448.841797,382.349536 C453.480298,382.955619 467.477607,384.147275 479.94691,384.997702 L502.618427,386.543949 L508.225742,396.757197 L513.833057,406.970488 L511.692094,414.159665 L509.55113,421.348843 L516.275565,434.389688 L523,447.430491 L510.491987,459.974316 C503.612584,466.873392 497.363595,472.279928 496.605369,471.98877 Z" id="path2384-path" stroke="#979797" fill="#67B402"></path>
                        <path d="M526.581914,427.298373 L518.032706,435 L517.438791,431.175346 C517.112179,429.071764 516.429786,420.117115 515.922438,411.276109 L515,395.201525 L527.4993,392.713106 L539.998557,390.224687 L554.707769,370.612322 L569.416938,351 L592.12738,355.141322 L614.837864,359.282643 L622.301603,371.860018 L629.765341,384.437393 L630.382649,402.635761 L631,420.834129 L616.960529,427.465856 L602.921058,434.097541 L569.026132,426.847185 L535.131164,419.596787 L526.581914,427.298373 Z" id="path2384-path" stroke="#979797" fill="#67B402"></path>
                        <path d="M555.950008,362.991183 C556.527503,363.095156 557,362.267351 557,361.151578 C557,360.035805 550.857544,355.862349 543.350099,351.877165 L529.700198,344.631399 L505.736179,343.315721 L481.772119,342 L479.886038,345.105414 L478,348.210871 L501.750114,347.741004 L525.500228,347.271137 L540.200122,355.03664 C548.285063,359.307696 555.372512,362.887253 555.950008,362.991183 Z" id="path2384-path" stroke="#979797" fill="#0D8B40"></path>
                        <path d="M482.492508,383.416107 C477.813412,383.094961 469.713425,381.990631 464.49255,380.962022 L455,379.091831 L464.082913,371.545937 L473.165785,364 L482.082872,365.748893 L491,367.497786 L491,375.748872 L491,384 L482.492508,383.416107 Z" id="path2384-path" stroke="#979797" fill="#67B402"></path>
                        <path d="M553.796778,320.73623 C549.835042,320.591175 541.918993,318.651079 536.20555,316.424951 L525.817545,312.3774 L520.606582,314.327525 L515.39562,316.277691 L507.69781,307.98215 L500,299.68661 L506.23026,295.843284 L512.460563,292 L525.260451,292.42859 C532.30039,292.664314 542.860297,294.040004 548.726913,295.485682 L559.393486,298.114144 L560.196722,309.557072 L561,321 L553.796778,320.73623 Z" id="path2384-path" stroke="#979797" fill="#67B402"></path>
                        <path d="M1306.49093,957 C1304.61833,957 1300.09956,954.019646 1296.44923,950.376959 C1292.79886,946.734314 1289.81222,942.041503 1289.81222,939.948546 L1289.81222,936.143173 L1276.55616,929.302614 L1263.30009,922.462055 L1252.64721,927.305624 L1241.99436,932.149152 L1219.72276,929.372366 L1197.45115,926.595581 L1194.94152,920.069309 L1192.43184,913.543037 L1201.13602,904.297341 L1209.84021,895.051645 L1205.92709,884.932924 C1203.77485,879.367594 1197.06081,870.216222 1191.00699,864.596523 C1184.95312,858.976782 1180,853.203332 1180,851.766597 L1180,849.15431 L1208.50894,849.121309 L1237.01789,849.088308 L1248.46796,841.554564 L1259.918,834.02082 L1262.49377,825.922312 L1265.06959,817.823846 L1277.31336,811.505652 C1284.04746,808.030624 1291.83978,805.680699 1294.62969,806.283521 L1299.70217,807.379627 L1307.65958,786.306336 L1315.61696,765.233044 L1323.85165,758.878392 L1332.08634,752.523741 L1327.04533,739.196654 L1322.00427,725.869525 L1327.17647,719.650544 L1332.34867,713.431563 L1347.28051,710.636233 C1355.49303,709.098809 1364.46921,706.976687 1367.22752,705.920451 L1372.24269,704 L1397.12132,719.528951 L1422,735.057902 L1412.07281,743.079535 L1402.14565,751.101168 L1388.79933,748.602634 L1375.45301,746.104142 L1370.64627,751.883661 L1365.83958,757.663222 L1370.3355,770.533103 L1374.83143,783.402984 L1387.12512,788.484471 L1399.41876,793.565958 L1395.10276,801.613553 L1390.78672,809.661148 L1393.20998,813.573827 L1395.63324,817.486463 L1377.56698,842.759324 L1359.50075,868.032144 L1345.70078,872.827877 L1331.9008,877.623569 L1325.56742,889.845151 L1319.23409,902.066775 L1336.04892,918.846215 L1352.86374,935.625655 L1346.3738,942.101941 L1339.88381,948.57827 L1330.37293,946.196187 L1320.86201,943.814146 L1315.37883,950.407052 C1312.36309,954.033176 1308.36352,957 1306.49093,957 Z" id="path2384-path" stroke="#979797"></path>
                        <path d="M1174.17718,931.978534 C1169.54475,931.759758 1157.48053,929.951142 1147.36773,927.959368 L1128.98092,924.338001 L1115.71955,908.964342 L1102.45818,893.590726 L1084.48509,898.98699 L1066.51204,904.383255 L1040.95865,892.143951 L1015.40527,879.90469 L1005.38803,860.094739 L995.370789,840.284789 L985.808537,836.912456 C980.549302,835.057629 972.456119,833.492899 967.823694,833.435293 L959.401103,833.330463 L950.680983,815.131369 L941.960822,796.932276 L930.219519,789.213753 C923.761835,784.968595 914.836036,776.066301 910.384444,769.430896 L902.290628,757.366563 L904.583721,744.357956 L906.876813,731.349349 L898.259787,723.534521 C893.520437,719.236399 886.129908,709.897481 881.836324,702.781394 C877.542782,695.665349 872.898186,686.044901 871.514944,681.402663 L869,672.96223 L883.323164,672.231288 L897.64637,671.500389 L907.926689,664.750194 L918.207009,658 L924.587291,660.453507 L930.967572,662.907057 L938.867415,677.842193 L946.767216,692.777286 L975.247534,707.216336 L1003.72785,721.655427 L1016.30767,715.136374 C1023.22657,711.550878 1028.88748,707.000851 1028.88748,705.025157 L1028.88748,701.433035 L1050.23437,692.230388 L1071.58121,683.027742 L1093.40015,690.284953 C1105.40053,694.276392 1122.64722,700.872337 1131.72614,704.942567 L1148.2332,712.343013 L1153.42892,722.071836 L1158.62461,731.800659 L1152.52375,747.08046 L1146.42293,762.360261 L1155.44698,786.530286 L1164.47102,810.700311 L1170.35593,812.96336 L1176.24084,815.226366 L1173.70054,831.146205 L1171.16025,847.066087 L1185.65317,863.409466 C1193.62427,872.398317 1201.46321,883.371513 1203.07302,887.7943 L1206,895.835712 L1197.01714,905.417799 L1188.03428,914.999843 L1191.12069,920.004344 L1194.20707,925.008804 L1188.40344,928.692547 C1185.2114,930.718631 1178.8096,932.19731 1174.17718,931.978534 Z" id="path2384-path" stroke="#979797"></path>
                        <path d="M758.520668,845.128477 L746.888435,852 L739.944197,837.36566 L733,822.73132 L736.261787,808.826626 C738.055818,801.179062 739.670804,793.025654 739.85065,790.70798 C740.030495,788.390306 743.461172,780.451263 747.474324,773.065637 L754.771006,759.637204 L752.243055,753.049364 L749.715146,746.461482 L743.845261,746.461482 L737.975376,746.461482 L737.975376,738.033577 L737.975376,729.605672 L747.456289,720.12428 L756.937243,710.642887 L780.113346,710.190014 C792.860216,709.940969 810.874355,708.221298 820.144745,706.368591 L837,703 L832.127104,708.928399 L827.254165,714.85684 L824.274451,734.873113 L821.294737,754.889386 L818.415227,754.889386 C816.831507,754.889386 802.504456,763.448639 786.577378,773.909944 L757.619038,792.930461 L748.85064,790.564537 L740.082283,788.198572 L747.510141,792.853177 L754.938042,797.507782 L771.754867,788.055929 L788.57165,778.604034 L794.41996,786.602326 L800.26827,794.600619 L791.244345,799.078069 L782.220421,803.55552 L776.186661,820.906216 L770.152859,838.256911 L758.520668,845.128477 Z" id="path2384-path" stroke="#979797"></path>
                        <path d="M912.751644,851.830377 C908.109341,851.737093 898.640545,848.604497 891.709854,844.869029 C884.779162,841.133603 872.912935,832.643066 865.340461,826.001179 C857.767945,819.359292 844.139391,810.100667 835.054724,805.426385 C825.970099,800.752104 815.733803,796.927715 812.307395,796.927715 L806.077627,796.927715 L799.538793,787.51243 C795.942478,782.334068 793,776.653743 793,774.889566 C793,773.125347 800.375684,767.886956 809.390414,763.248683 L825.780786,754.815422 L828.685796,733.512996 L831.590806,712.21057 L835.466239,709.794973 L839.34163,707.379333 L836.77425,703.189645 L834.206827,699 L855.151966,700.693473 L876.097147,702.386946 L889.31301,717.567621 L902.528832,732.748338 L899.846864,743.525476 L897.164896,754.302656 L906.296944,769.20492 L915.428991,784.107184 L927.601932,791.359399 L939.774916,798.611656 L944.147678,811.26265 C946.552712,818.220736 951.77837,827.544389 955.760241,831.981945 L963,840.050161 L947.600087,837.136414 L932.200215,834.222709 L926.696196,843.111333 L921.192219,852 L912.751644,851.830377 Z" id="path2384-path" stroke="#979797"></path>
                        <path d="M1206.66346,845.37838 L1175.68762,846 L1178.27335,829.782122 L1180.85909,813.564244 L1174.62612,811.165401 L1168.39315,808.766559 L1159.69659,785.454461 L1151,762.142363 L1156.21164,747.68746 L1161.42324,733.2326 L1167.10298,735.418542 L1172.78271,737.604485 L1188.56883,729.527274 L1204.35491,721.450105 L1209.25733,710.65876 L1214.15975,699.867415 L1224.38699,697.29296 L1234.61419,694.718548 L1247.92425,701.621724 L1261.23436,708.524901 L1270.42303,705.599939 L1279.6117,702.674978 L1291.10281,690.337489 L1302.59391,678 L1311.20945,682.624482 L1319.82499,687.248963 L1319.82499,693.192062 C1319.82499,696.460766 1321.4256,700.127283 1323.38193,701.339915 L1326.93884,703.544713 L1342.85542,699.136978 L1358.77196,694.729243 L1362.88598,698.855381 L1367,702.981518 L1350.11061,705.843362 L1333.22121,708.705206 L1325.67868,717.064142 L1318.13619,725.423077 L1323.10226,738.618464 L1328.06833,751.813851 L1320.06951,757.43295 L1312.07073,763.052049 L1305.0604,784.220311 L1298.05003,805.388615 L1294.30834,803.069293 L1290.5666,800.749971 L1277.61461,807.467389 L1264.66266,814.184849 L1260.3303,823.72137 L1255.99793,833.257849 L1246.81862,839.007326 L1237.63927,844.756803 L1206.66346,845.37838 Z" id="path2384-path" stroke="#979797"></path>
                        <path d="M688.978807,721.468367 L680.551749,721.483681 L672.372742,715.289914 L664.193735,709.096105 L654.713927,709.096105 L645.234077,709.096105 L642.477544,713.561747 L639.720969,718.027348 L626.566417,715.134626 C619.331451,713.543607 610.166436,710.21261 606.199777,707.732387 C602.233077,705.252163 596.956601,698.759843 594.474243,693.305056 C591.991885,687.850269 589.96088,679.787433 589.96088,675.387686 L589.96088,667.388129 L580.48044,660.702005 L571,654.015923 L577.320293,649.87423 L583.640586,645.732537 L593.209974,647.986557 L602.779319,650.240577 L613.888246,639.118171 L624.997172,627.995766 L640.133853,627.19144 L655.270576,626.387072 L666.931686,618.693536 L678.592795,611 L700.197833,613.869478 L721.802828,616.738997 L739.099027,625.729807 L756.395267,634.720618 L779.155654,634.844561 L801.916042,634.968547 L807.887539,625.964111 L813.859036,616.959632 L828.083951,622.910405 C835.907674,626.183311 846.952344,633.510247 852.627673,639.192462 L862.946478,649.523787 L860.766061,651.70685 L858.585644,653.88987 L861.797997,661.454442 C863.564771,665.61495 865.378401,671.866597 865.828321,675.346976 C866.278242,678.827355 868.075902,686.063294 869.823168,691.426833 L873,701.17877 L858.557203,698.465973 L844.114448,695.753218 L825.536031,700.856171 L806.957613,705.959123 L780.218433,706.561883 L753.479295,707.164642 L748.061919,714.582321 L742.644543,722 L740.171707,715.548052 L737.698871,709.096105 L728.086168,709.245613 L718.473508,709.39508 L707.939686,715.424067 C702.146084,718.740003 693.613688,721.45993 688.978807,721.468367 Z" id="path2384-path" stroke="#979797" fill="#67B402"></path>
                        <path d="M1262.01045,703.998261 C1260.11851,703.92782 1254.77539,701.704084 1250.13683,699.05669 C1245.49827,696.409254 1239.52266,691.206099 1236.85768,687.494128 L1232.01228,680.745062 L1200.3393,666.838651 L1168.66631,652.93224 L1163.58519,640.67677 L1158.50411,628.421256 L1144.16821,624.466575 L1129.83232,620.511894 L1116.91995,609.656902 L1104.00759,598.801909 L1092.41557,598.801909 L1080.82355,598.801909 L1070.91967,609.334356 L1061.0158,619.866803 L1053.06825,619.866803 L1045.12071,619.866803 L1047.30037,616.343278 L1049.48003,612.819754 L1041.25616,585.799182 C1036.73301,570.937858 1033.01773,558.439045 1033,558.024067 C1032.98231,557.609046 1043.02358,555.183845 1055.31399,552.63474 L1077.66014,548 L1113.91737,564.974976 L1150.17456,581.949994 L1167.12057,581.949994 L1184.06659,581.949994 L1197.78771,599.258343 L1211.50887,616.56665 L1230.24039,624.588499 L1248.97192,632.610348 L1262.5675,624.215566 L1276.16312,615.820785 L1283.90138,621.473928 L1291.63964,627.127029 L1299.00838,625.201867 L1306.37707,623.276662 L1313.69596,627.368728 L1321.01481,631.460794 L1310.04959,638.638825 L1299.08436,645.816899 L1291.47809,641.564149 L1283.87182,637.3114 L1285.98026,633.855325 L1288.0887,630.39925 L1278.88604,629.090362 L1269.68339,627.781431 L1264.68766,637.516319 C1261.94003,642.870468 1255.91032,650.260201 1251.28837,653.937921 L1242.88486,660.624676 L1250.53022,675.002814 L1258.17562,689.380953 L1257.21388,695.700421 L1256.25218,702.019889 L1261.0646,694.145494 L1265.87703,686.271058 L1261.80087,683.613048 C1259.55897,682.151102 1255.52962,676.788949 1252.84672,671.697101 L1247.96876,662.439164 L1258.54076,651.876931 C1264.35537,646.067697 1269.11276,639.332661 1269.11276,636.910198 L1269.11276,632.505739 L1278.20008,632.505739 L1287.2874,632.505739 L1280.60661,639.881106 L1273.92582,647.256431 L1278.25267,654.980928 L1282.57948,662.705382 L1293.36194,660.001661 L1304.14436,657.29794 L1316.15047,662.266474 L1328.15663,667.234966 L1333.42389,662.870742 L1338.69119,658.506559 L1349.80843,668.063659 C1355.92289,673.320066 1362.06739,681.214725 1363.46283,685.607345 L1366,693.593931 L1356.56247,693.754951 C1351.37183,693.843508 1341.90655,695.301494 1335.52853,696.994943 L1323.93213,700.073914 L1323.93213,693.77134 L1323.93213,687.468724 L1312.82926,680.200535 L1301.7264,672.932388 L1292.79911,683.775626 C1287.88911,689.739435 1279.72697,696.758089 1274.66107,699.372621 C1269.59517,701.987196 1263.90239,704.068745 1262.01045,703.998261 Z" id="path2384-path" stroke="#979797"></path>
                        <path d="M2210.2045,690.985992 C2208.74897,690.754877 2202.81467,689.195629 2197.01699,687.521035 L2186.47575,684.47636 L2187.49488,675.210378 L2188.51401,665.944439 L2175.89994,658.274383 L2163.28545,650.604284 L2174.88081,635.30709 L2186.47575,620.009896 L2191.53091,621.765857 L2196.58565,623.52186 L2210.21041,610.796149 L2223.83517,598.07048 L2231.05297,599.957682 L2238.27076,601.844884 L2237.49366,590.619313 L2236.71614,579.393743 L2230.07643,569.915196 L2223.43629,560.436649 L2237.85966,546.015475 L2252.2826,531.5943 L2245.63656,521.452636 L2238.99052,511.310971 L2241.52168,504.716431 L2244.05242,498.121849 L2236.01578,493.82126 L2227.97872,489.520671 L2214.2321,497.879267 L2200.48548,506.237862 L2191.37237,503.35786 C2186.36022,501.773865 2176.52567,496.113061 2169.51785,490.77823 L2156.77645,481.078601 L2135.87781,476.395757 L2114.97917,471.712914 L2100.12951,460.667235 C2091.96216,454.592093 2076.12585,439.531959 2064.9378,427.200223 L2044.59616,404.778888 L2021.36327,398.025915 L1998.1308,391.272942 L1982.75198,394.157581 C1974.29369,395.744148 1963.95863,398.869388 1959.78515,401.102546 L1952.19756,405.162914 L1959.85303,416.537937 L1967.5085,427.913003 L1967.31243,444.155527 L1967.11595,460.398008 L1954.51748,465.702106 L1941.91901,471.006246 L1935.59427,467.955163 C1932.11566,466.277069 1921.20042,463.672154 1911.33761,462.166449 L1893.40612,459.428817 L1878.14494,465.804341 L1862.88418,472.179866 L1851.49247,472.179866 C1845.22718,472.179866 1824.32053,467.457224 1805.03301,461.685078 L1769.96526,451.190332 L1754.74624,453.559748 L1739.52722,455.929121 L1718.44475,444.603044 C1706.84938,438.373684 1687.87515,430.766487 1676.27979,427.698204 L1655.19731,422.119483 L1647.03026,430.137308 L1638.8632,438.155133 L1646.44943,446.53662 L1654.03567,454.918108 L1642.31018,457.86059 L1630.58466,460.803071 L1599.4299,451.638524 L1568.27514,442.473934 L1552.14232,446.817441 L1536.00955,451.160905 L1530.55484,457.732469 C1527.55476,461.346837 1519.7483,467.071217 1513.20712,470.453289 L1501.31411,476.602505 L1490.79598,469.711756 L1480.27785,462.821008 L1473.69219,465.347803 L1467.10649,467.874597 L1445.19829,456.579254 L1423.29006,445.283953 L1406.42407,443.903079 C1397.14778,443.143629 1383.68498,442.530975 1376.50677,442.541599 L1363.45545,442.560992 L1358.88848,432.539017 L1354.32151,422.517041 L1335.04547,415.156516 L1315.76942,407.795949 L1315.76942,404.304811 C1315.76942,402.384683 1308.83759,396.104059 1300.36538,390.347849 L1284.96134,379.882066 L1272.92008,386.107927 L1260.87883,392.333829 L1253.53804,388.544923 C1249.50061,386.461007 1238.6716,383.394747 1229.47361,381.731072 L1212.75002,378.706128 L1201.41549,370.636405 L1190.081,362.566683 L1182.46942,362.566683 C1178.28303,362.566683 1156.75559,367.412428 1134.63063,373.334997 C1112.50566,379.257566 1089.65984,385.468755 1083.86216,387.137616 L1073.32092,390.17192 L1073.13089,401.245676 L1072.94081,412.31939 L1067.78652,418.529061 L1062.63223,424.738732 L1073.9588,432.159081 L1085.28536,439.579472 L1074.39942,445.28235 L1063.51352,450.985271 L1045.66809,444.689933 L1027.8227,438.394595 L1013.11249,442.455722 L998.402274,446.516806 L987.371921,440.942554 C981.305185,437.876715 966.397765,433.031602 954.244265,430.17563 L932.147003,424.982959 L918.404052,432.936027 L904.661102,440.889096 L900.511438,450.181427 L896.361816,459.473801 L889.172902,457.192455 L881.983988,454.911068 L877.510665,463.268314 C875.050382,467.864774 873.037385,475.319398 873.037385,479.834112 L873.037385,488.042664 L887.875908,499.358918 C896.037061,505.582881 907.499478,515.109194 913.347842,520.528554 L923.981295,530.381894 L911.150246,539.517099 C904.093182,544.54143 896.156093,552.693531 893.512308,557.632786 L888.705377,566.613309 L897.737363,572.609446 L906.76935,578.605582 L906.76935,584.509432 L906.76935,590.41324 L923.435976,608.491785 L940.10256,626.570329 L944.525327,638.201384 L948.948093,649.832481 L946.375862,660.079627 C944.961102,665.715558 943.060601,670.326774 942.152452,670.326774 C941.244345,670.326774 936.609405,666.435421 931.852649,661.679347 L923.203985,653.031921 L915.914886,655.345012 L908.625831,657.658146 L894.645154,644.890655 L880.66452,632.123122 L891.489402,623.609466 L902.314285,615.095853 L910.039622,619.229745 L917.764958,623.363638 L923.862517,619.266128 L929.960075,615.168577 L923.238054,616.398352 L916.516032,617.628128 L891.614337,606.463646 C877.9184,600.3232 858.813417,592.046477 849.158823,588.070975 L831.604961,580.842745 L827.146017,583.598125 L822.687115,586.353505 L810.123181,579.857407 C803.21302,576.284523 794.144518,573.444529 789.970989,573.546301 L782.382731,573.731379 L799.248713,580.203152 C808.525003,583.762629 821.806964,587.245209 828.764182,587.942222 C835.721399,588.639235 851.018086,592.93818 862.75681,597.495475 C874.495534,602.052769 887.534372,607.703202 891.731977,610.05196 L899.363961,614.322405 L889.926938,620.931406 L880.489915,627.540406 L870.324534,622.909418 L860.159154,618.278429 L855.695108,622.741836 L851.231062,627.205243 L834.638013,620.688275 L818.045007,614.171265 L815.60724,604.45979 L813.169431,594.748273 L777.966162,574.991256 L742.762936,555.234238 L748.701069,543.752805 L754.639202,532.271373 L752.098257,529.730792 L749.557313,527.190211 L754.890926,520.764518 L760.224582,514.338782 L756.865047,514.338782 L753.505512,514.338782 L762.046235,504.853026 C766.743622,499.63586 771.937923,492.982888 773.589103,490.068653 L776.591247,484.769994 L767.804492,472.431892 L759.017737,460.093832 L734.86,455.11596 C721.573275,452.378118 705.68573,447.564286 699.554398,444.418514 C693.423065,441.272742 682.457942,432.751245 675.187523,425.481825 L661.968556,412.264794 L647.870998,414.909128 L633.773398,417.553461 L634.192012,401.591252 L634.610584,385.629043 L625.211973,370.423924 L615.813362,355.218805 L595.389712,352.509926 L574.966061,349.801005 L569.554569,338.266283 L564.143076,326.731604 L563.073267,309.266008 L562.003458,291.800412 L572.289092,287.114659 L582.574727,282.428864 L580.316457,278.775456 C579.074404,276.766078 571.893417,273.889238 564.358665,272.382521 L550.659187,269.642992 L528.476077,274.606656 L506.292968,279.570321 L489.290961,271.904607 L472.288997,264.238851 L469.783387,254.257053 L467.277734,244.275255 L479.361156,227.436604 C486.007028,218.175387 493.985818,205.761694 497.091858,199.850718 L502.739137,189.103441 L496.506987,182.031493 L490.274838,174.959504 L487.363432,161.263084 L484.452069,147.566706 L475.414727,141.237598 L466.377428,134.908533 L485.004978,134.908533 L503.63257,134.908533 L514.517411,124.481705 L525.40221,114.054878 L537.938863,117.447785 L550.475474,120.840651 L549.287519,129.208057 L548.099606,137.575464 L556.530741,145.204415 L564.961835,152.833408 L561.044416,160.152154 L557.126954,167.4709 L563.154223,175.431093 L569.181493,183.391287 L569.31562,193.086405 C569.389366,198.418706 572.295797,208.284483 575.774363,215.010306 C579.25293,221.736129 584.920406,228.817815 588.368825,230.747344 L594.638627,234.255598 L585.206537,247.613187 C580.018899,254.959884 571.979602,262.832809 567.341457,265.10859 L558.908465,269.246403 L564.380423,269.531735 L569.85238,269.817066 L580.60419,258.223364 C586.517699,251.846828 593.149909,243.281527 595.342445,239.189288 L599.328846,231.748956 L592.666319,229.19265 L586.003792,226.636386 L579.834975,214.708954 C576.442172,208.148858 573.6662,198.826257 573.6662,193.992062 L573.6662,185.202561 L567.520489,175.824352 L561.374736,166.446143 L565.218156,160.228251 L569.061534,154.010401 L560.289199,144.673972 L551.516822,135.337542 L554.065061,128.697934 L556.6133,122.058284 L566.193853,118.210904 L575.774448,114.363523 L568.644438,114.09632 L561.514386,113.829075 L558.781928,118.24969 L556.049428,122.670305 L551.154204,118.831019 C548.461845,116.719406 541.336178,113.819463 535.31945,112.386692 L524.379921,109.781692 L514.236972,120.693305 L504.094023,131.604918 L477.965033,129.220368 L451.836042,126.835859 L432.414695,133.452406 L412.99339,140.068953 L403.729285,152.655287 L394.465138,165.241621 L382.941161,171.22591 L371.417141,177.2102 L364.517732,190.840473 L357.618322,204.470745 L346.726987,213.396842 L335.835695,222.322939 L340.898399,244.252616 L345.961103,266.182293 L341.209956,275.37749 C338.596825,280.434874 333.602934,287.847971 330.112351,291.851087 L323.765934,299.129486 L320.366427,297.028792 L316.966962,294.928097 L303.009855,303.436273 L289.052749,311.944448 L280.619758,311.866496 L272.186767,311.788502 L261.918082,303.896859 L251.649398,296.005173 L250.712619,283.965093 C250.197363,277.343065 248.476274,268.676963 246.88792,264.707068 L244,257.489124 L255.503401,246.829664 L267.006802,236.170246 L281.612869,232.137872 L296.218936,228.10554 L319.383688,212.15366 L342.548398,196.201738 L348.053539,185.580642 C351.081362,179.739018 361.047893,168.245823 370.201357,160.04018 C379.35482,151.834579 387.642132,142.726988 388.617534,139.801117 L390.391034,134.481379 L419.835328,123.804338 C436.029665,117.931981 457.219748,110.567492 466.924392,107.438837 L484.569161,101.750377 L521.028608,103.164387 L557.488012,104.578355 L583.497212,117.310769 L609.506412,130.043225 L620.10917,127.958214 L630.71197,125.873245 L671.333519,138.883613 L711.955111,151.894023 L714.207521,157.76284 L716.459931,163.631698 L704.228762,168.697303 L691.997594,173.762907 L676.050977,171.466511 C667.280329,170.203472 649.141513,166.825953 635.74246,163.960875 L611.38056,158.751593 L606.639659,163.491815 L601.8988,168.231995 L613.39769,173.470493 L624.896579,178.708991 L630.991987,190.494559 L637.087395,202.280084 L653.653037,210.730038 L670.218678,219.179991 L680.973356,215.09163 C686.888467,212.843043 691.728076,210.068353 691.728076,208.925636 C691.728076,207.782919 686.510163,204.017621 680.132713,200.558314 L668.53735,194.268625 L673.533476,194.099821 C676.281366,194.006987 683.52092,195.828463 689.62143,198.147498 L700.713217,202.364022 L708.713132,198.083206 L716.713005,193.802389 L714.409449,187.800224 L712.105851,181.79806 L730.378329,177.116649 C740.428178,174.54192 751.219413,171.564362 754.358847,170.499934 L760.06697,168.564586 L757.925749,163.330262 C756.748082,160.451398 754.392747,154.624741 752.691687,150.38212 L749.598887,142.668345 L761.774313,144.058283 L773.949739,145.448262 L772.93757,150.59224 L771.9254,155.73626 L780.78451,160.47682 L789.643578,165.217337 L814.002821,152.450395 L838.362106,139.683452 L853.637711,136.818121 L868.913315,133.952833 L875.056328,139.050352 L881.19934,144.14787 L910.091442,139.275269 C925.982107,136.595353 940.748106,134.938382 942.904801,135.593152 C945.061496,136.247922 951.942817,133.364083 958.196597,129.184659 L969.567136,121.585725 L1002.4698,128.713449 L1035.37246,135.841215 L1044.04984,141.265423 L1052.72722,146.689632 L1059.8617,142.697519 C1063.78566,140.501883 1066.99618,136.877903 1066.99618,134.644239 L1066.99618,130.58307 L1048.39954,121.549384 L1029.80285,112.51574 L1025.05006,102.086004 L1020.29731,91.6563093 L1027.09106,84.1503358 L1033.88484,76.6443623 L1044.47436,73.9869593 L1055.06384,71.3295563 L1062.74802,73.7680702 L1070.4322,76.2065841 L1093.20997,106.61151 C1105.73776,123.334266 1117.41788,139.400861 1119.16583,142.315138 L1122.34388,147.613755 L1113.34474,160.250047 L1104.3456,172.886381 L1110.58931,175.281935 L1116.83301,177.677531 L1129.36899,171.195851 L1141.90501,164.714128 L1144.60934,153.940712 L1147.31368,143.167296 L1142.87016,134.865657 L1138.42661,126.564019 L1126.02712,120.152912 L1113.62763,113.741806 L1109.28611,105.63081 C1106.89831,101.169764 1104.94464,95.2868244 1104.94464,92.5575826 L1104.94464,87.5953517 L1118.64825,90.0980314 L1132.35186,92.6007112 L1147.71235,83.1894076 C1156.1606,78.013178 1168.2495,70.089241 1174.57652,65.5805978 L1186.08026,57.3830916 L1205.68912,56.9384415 L1225.29797,56.4937914 L1230.68172,53.1669048 L1236.06551,49.8400604 L1231.04341,43.7896656 C1228.28127,40.4619359 1226.89919,36.8614801 1227.9722,35.7886621 C1229.04517,34.7158442 1245.86271,30.8147953 1265.34448,27.1196927 L1300.76591,20.4013321 L1318.91075,23.1219313 L1337.05564,25.8425305 L1353.37238,12.9212863 L1369.68916,0 L1380.88712,0 L1392.08512,0 L1405.57934,7.26022918 L1419.07356,14.5204584 L1459.13027,14.680873 L1499.18698,14.8412456 L1510.78234,22.6611344 C1517.15979,26.9620606 1522.35038,31.685672 1522.31694,33.1580301 C1522.28355,34.6304302 1512.55255,41.1878281 1500.69252,47.7300909 L1479.12885,59.6251028 L1483.30921,63.8048642 L1487.48962,67.9846679 L1512.75035,61.4398755 L1538.01112,54.8950831 L1558.92586,61.105218 L1579.84061,67.3153107 L1594.02473,63.2479449 L1608.20885,59.1805792 L1632.91183,65.5808508 L1657.61476,71.9811224 L1673.27216,67.6332733 L1688.92928,63.2854242 L1712.28065,63.2618996 L1735.63203,63.2383749 L1753.1288,72.7241311 C1762.7521,77.941297 1780.49849,87.5945506 1792.56526,94.1758526 L1814.50495,106.141776 L1829.72228,99.3205895 L1844.93961,92.4994033 L1867.38402,96.7896211 L1889.828,101.079797 L1902.46821,94.5442372 L1915.10842,88.0086777 L1910.28433,82.1964386 L1905.45982,76.3842418 L1920.00335,73.6562226 L1934.54689,70.9282456 L1961.42368,75.7414026 C1976.20587,78.3886453 1994.94144,81.0311662 2003.0582,81.6136338 L2017.81593,82.6727079 L2038.29882,91.8909237 L2058.78129,101.109182 L2118.71203,102.755024 L2178.64277,104.400865 L2193.10029,112.104944 L2207.55823,119.809022 L2262.37267,120.343344 L2317.18712,120.877624 L2333.44677,127.865085 L2349.70684,134.852546 L2353.75004,132.35404 L2357.79323,129.855576 L2350.13945,121.2888 L2342.48609,112.722066 L2372.00156,115.653797 C2388.23507,117.266249 2419.54255,121.551661 2441.57374,125.176948 L2481.63044,131.768368 L2500.60467,139.110554 L2519.5789,146.452741 L2544.80451,149.53831 L2570.03012,152.623836 L2589.79241,162.636748 L2609.5547,172.649617 L2622.24467,168.22643 L2634.93463,163.803285 L2644.7207,168.945661 C2650.10305,171.774018 2660.69278,179.460348 2668.25338,186.026388 L2682,197.964697 L2671.63965,200.564595 L2661.2793,203.164494 L2645.24354,197.99834 C2636.4239,195.156955 2626.91908,191.018931 2624.12185,188.802764 L2619.03591,184.773341 L2615.40551,187.016659 L2611.77553,189.260019 L2593.4907,182.961266 L2575.20587,176.662555 L2568.95491,179.06085 L2562.70438,181.459144 L2570.20552,189.746744 L2577.70667,198.034386 L2563.40052,197.036653 L2549.09437,196.038962 L2546.98613,199.571458 L2544.87788,203.103911 L2582.82634,217.903166 C2603.69799,226.042789 2621.66869,233.567776 2622.76077,234.625416 C2623.85326,235.683057 2622.30749,238.055887 2619.32601,239.898316 L2613.90486,243.248264 L2604.17741,241.389014 L2594.44995,239.529721 L2581.25907,246.349895 L2568.0686,253.170028 L2568.0686,257.113446 C2568.0686,259.282312 2564.01023,264.837424 2559.04952,269.458125 L2550.03044,277.859385 L2537.96704,271.622016 L2525.90365,265.384646 L2514.30828,271.22509 C2507.93084,274.437346 2497.03119,278.432873 2490.08705,280.104095 C2483.1429,281.775274 2475.09867,285.102835 2472.21164,287.498684 L2466.9621,291.854797 L2474.20435,304.112881 L2481.44618,316.370965 L2499.7618,325.236016 L2518.07699,334.101109 L2522.01941,345.171956 C2524.18753,351.260968 2528.78436,361.260979 2532.23429,367.3943 L2538.50717,378.545713 L2531.76795,381.131488 L2525.02872,383.717221 L2527.96425,391.059491 C2529.57875,395.097725 2531.40364,403.14464 2532.01925,408.941491 C2532.63486,414.738342 2534.49391,422.629859 2536.15058,426.478167 L2539.16284,433.475114 L2529.8798,436.421094 L2520.59634,439.367075 L2505.3301,422.492884 C2496.93337,413.212063 2482.92828,400.43458 2474.20773,394.098432 L2458.35159,382.578213 L2439.48531,357.484004 L2420.61902,332.389836 L2426.87967,320.284325 C2430.32328,313.626294 2433.20779,303.815998 2433.29001,298.483696 C2433.37223,293.151394 2436.04802,284.076898 2439.23611,278.318159 L2445.03295,267.847697 L2440.65328,259.346646 C2438.24439,254.671054 2433.43253,247.586585 2429.95982,243.603411 L2423.64646,236.361268 L2415.54151,240.69824 L2407.43657,245.035254 L2410.03814,253.231032 L2412.63972,261.426809 L2406.36473,263.834336 L2400.09017,266.241906 L2390.26236,259.810774 L2380.43455,253.379684 L2362.60932,250.534969 L2344.78408,247.690254 L2340.16575,259.807654 L2335.54785,271.925012 L2337.79777,283.220018 L2340.04769,294.515024 L2328.42619,297.067114 L2316.8051,299.619204 L2300.58551,292.84317 L2284.36549,286.067136 L2273.3693,289.193262 L2262.37267,292.31943 L2227.92686,292.661929 L2193.48146,293.00447 L2183.01275,302.836941 L2172.54445,312.669413 L2167.63983,332.348183 C2164.94253,343.171515 2159.99911,356.249928 2156.65459,361.411318 L2150.57398,370.795724 L2167.95691,379.662418 L2185.33941,388.529155 L2198.55686,388.784343 C2205.82694,388.92469 2215.59825,387.721306 2220.27139,386.110161 L2228.76763,383.180791 L2249.06794,398.994305 L2269.36826,414.80782 L2277.47953,430.705188 L2285.59081,446.602599 L2293.86694,451.03114 L2302.14308,455.459682 L2305.9316,471.197605 L2309.72012,486.935487 L2309.09145,512.230836 L2308.46319,537.526186 L2300.18579,560.246343 L2291.90838,582.966542 L2282.98037,588.815628 L2274.05237,594.664756 L2262.66741,590.336848 C2256.40549,587.956514 2250.64871,586.008941 2249.87456,586.008941 C2249.09999,586.008941 2244.40914,593.792025 2239.45012,603.304636 L2230.43356,620.600332 L2234.8807,625.957676 L2239.32742,631.31502 L2236.91432,637.602179 L2234.50164,643.889339 L2224.19231,648.585884 L2213.88298,653.28243 L2213.88298,657.237062 C2213.88298,659.412125 2219.10089,665.084144 2225.47834,669.841567 L2237.0737,678.491438 L2230.21093,678.624998 L2223.34859,678.758557 L2218.09947,685.082394 C2215.21244,688.560505 2211.65962,691.217107 2210.2045,690.985992 Z" id="path2384-path" fill="url(#linearGradient-1)"></path>
                        <path d="M1822.95053,614.987435 C1818.77135,614.777168 1798.25413,610.008936 1777.35611,604.391447 L1739.35971,594.177798 L1716.13968,596.619841 L1692.91966,599.061842 L1680.25419,585.719596 L1667.58872,572.377349 L1647.17119,561.964111 L1626.75361,551.550873 L1614.72183,554.192716 L1602.69006,556.834517 L1592.23088,551.282742 L1581.77173,545.730968 L1567.31427,524.6283 L1552.85681,503.525632 L1536.45178,498.049574 C1527.42902,495.037717 1516.66122,489.510548 1512.52337,485.766977 L1505,478.96048 L1515.04984,472.250676 C1520.5773,468.560241 1530.03904,462.030358 1536.07595,457.739763 L1547.05218,449.938698 L1562.99134,449.561467 L1578.93045,449.184193 L1607.00531,457.177251 L1635.08018,465.170308 L1646.57844,459.932964 L1658.07674,454.695577 L1650.44947,446.270083 L1642.82216,437.84459 L1648.87271,431.922295 L1654.92325,426 L1676.03237,431.573172 C1687.64238,434.638462 1706.64058,442.248759 1718.25059,448.484977 L1739.35971,459.823525 L1754.59795,457.451543 L1769.8362,455.079519 L1804.94825,465.58582 C1824.26014,471.364321 1845.1932,476.092163 1851.46641,476.092163 L1862.87251,476.092163 L1878.38686,469.611829 L1893.90121,463.131495 L1909.51056,465.759833 C1918.09563,467.205407 1928.47203,469.308668 1932.56931,470.433778 L1940.01871,472.479344 L1937.57428,476.433773 L1935.12942,480.388244 L1937.59412,488.15103 L1940.0584,495.913857 L1950.84853,500.8285 L1961.63825,505.743142 L1965.44633,503.390364 L1969.25441,501.037585 L1985.3138,505.360678 C1994.1467,507.7384 2005.11458,512.660977 2009.68681,516.299794 L2018,522.915776 L2004.95161,520.418993 L1991.90365,517.92221 L1986.21896,524.769899 C1983.09228,528.536134 1971.27413,536.308542 1959.95627,542.041926 L1939.37826,552.466307 L1930.99119,549.805049 L1922.6037,547.143834 L1916.58464,552.137611 L1910.56601,557.131389 L1916.4791,568.562873 L1922.3926,579.9944 L1919.53443,584.38865 C1917.96222,586.805497 1912.87662,590.747813 1908.23261,593.149339 C1903.58861,595.550865 1889.33996,598.906737 1876.56894,600.606811 L1853.34892,603.697887 L1841.94873,609.53383 C1835.67848,612.743588 1827.12929,615.197702 1822.95053,614.987435 Z" id="path2384-path" stroke="#979797"></path>
                        <path d="M447.292115,534.116625 L432,536 L420.5,529.590271 C414.175,526.064925 409,521.639052 409,519.755044 C409,517.871037 412.441344,513.191963 416.647458,509.35713 L424.294916,502.384672 L435.673309,502.384672 L447.051702,502.384672 L459.897495,495.692336 L472.743287,489 L486.871644,491.670236 C494.642256,493.138884 501,495.452701 501,496.812065 C501,498.171428 497.203955,505.471573 492.564311,513.034607 L484.12858,526.785599 L473.356425,529.509424 C467.431709,531.007522 455.702755,533.080734 447.292115,534.116625 Z" id="path2384-path" stroke="#979797" fill="#0D8B40"></path>
                        <path d="M286.138909,504.522084 L270.338909,505.129288 L272.086018,500.89554 C273.046974,498.56698 275.144824,493.372002 276.747999,489.351128 L279.662787,482.040505 L268.750938,477.028765 L257.839088,472.017024 L257.511112,467.404399 C257.330723,464.867495 256.916898,456.123664 256.591568,447.973701 L256,433.155586 L264.027805,415.162161 L272.05561,397.168736 L278.889864,397.168736 L285.72416,397.168736 L294.853747,386.584368 L303.983334,376 L308.930409,376 C311.651284,376 317.247551,379.07442 321.3666,382.832082 L328.855758,389.664165 L341.806951,385.113098 L354.758102,380.56199 L364.226081,384.910556 L373.69406,389.259122 L374.623685,401.557946 C375.135032,408.322288 377.470433,418.93951 379.813477,425.151772 C382.156522,431.364034 383.509462,437.015451 382.820035,437.710463 C382.130566,438.405475 372.627727,442.836472 361.702605,447.557185 L341.838745,456.140303 L341.838745,460.236199 C341.838745,462.488934 347.616031,468.478966 354.677168,473.547354 L367.51555,482.762571 L360.268731,490.834633 L353.021913,498.906653 L340.080338,502.453305 L327.138805,506 L321.942292,501.915662 L316.745821,497.831366 L309.342344,500.873102 C305.27046,502.546067 294.828883,504.188083 286.138909,504.522084 Z" id="path2384-path" stroke="#979797" fill="#67B402"></path>
                        <path d="M526.7628,390.791321 L512.61137,395 L503.111509,385.418773 L493.611606,375.837547 L494.633843,370.78831 L495.656038,365.739073 L486.517283,364.346127 L477.378571,362.953222 L474.689285,352.314439 L472,341.675697 L474.576278,333.616245 L477.152598,325.556792 L483.503854,325.556792 C486.997034,325.556792 493.893743,327.702798 498.829822,330.325731 L507.804491,335.094669 L515.18307,326.047314 L522.561692,317 L541.641146,322.066661 L560.720643,327.133363 L565.3603,337.243916 L570,347.354468 L555.457114,366.968555 L540.914271,386.582641 L526.7628,390.791321 Z" id="path2384-path" stroke="#979797" fill="#67B402"></path>
                        <path d="M364.346488,359 C362.081365,359 357.312942,355.675 353.75003,351.611111 C350.187118,347.547222 345.85028,339.472222 344.11256,333.666667 C342.374882,327.861111 337.363687,318.005389 332.976557,311.765071 L325,300.419031 L330.850757,296.987293 C334.068671,295.099833 339.795913,287.490544 343.57799,280.077716 L350.454466,266.599876 L345.470841,244.975216 L340.487174,223.350513 L351.451394,214.119722 L362.415571,204.888889 L369.053239,191.465896 L375.690948,178.042902 L384.171006,175.34714 L392.651107,172.651378 L403.454716,158.464584 L414.258325,144.277791 L433.711456,137.638896 C444.410688,133.987518 456.732557,131 461.093467,131 L469.022304,131 L466.547712,135.010393 L464.073078,139.020744 L472.279549,143.419709 L480.486021,147.818673 L483.24301,160.391184 L486,172.963653 L461.454188,197.823971 L436.908377,222.684289 L427.377221,225.696929 L417.846108,228.709569 L411.29469,241.39874 L404.743273,254.087911 L411.228633,264.00152 L417.713952,273.915087 L426.257285,276.630989 C430.95611,278.124684 434.800619,280.983087 434.800619,282.982942 C434.800619,284.982798 431.807223,289.617193 428.148619,293.281618 C424.490057,296.946042 418.184403,301.719687 414.136075,303.889698 L406.775531,307.835196 L401.73702,324.679118 L396.698466,341.522998 L382.581715,350.261478 C374.817493,355.067676 366.611654,359 364.346488,359 Z" id="path2384-path" stroke="#979797" fill="#67B402"></path>
                        <path d="M2042.64818,1010.05425 L2033.16311,1022 L2029.17051,1011.5036 L2025.17833,1001.00715 L2017.08843,998.440578 L2008.99854,995.874043 L2002.40133,998.404458 L1995.80455,1000.93487 L1985.97628,995.720661 C1980.5712,992.852888 1973.67638,987.024892 1970.65513,982.769586 C1967.63387,978.51428 1961.45036,973.047145 1956.91404,970.620406 L1948.66627,966.208131 L1928.63614,973.019211 C1917.61955,976.765295 1903.85693,980.247358 1898.05251,980.757171 L1887.499,981.68405 L1888.18456,992.296617 L1888.87011,1002.90914 L1873.89469,1001.73031 C1865.65831,1001.08193 1858.56425,1000.01677 1858.13029,999.363322 C1857.69633,998.709873 1852.24777,989.281792 1846.02246,978.412039 L1834.70404,958.648872 L1826.49088,956.043264 L1818.27772,953.437656 L1815.76515,945.523992 L1813.25215,937.61037 L1819.69991,922.185804 L1826.14726,906.761237 L1819.58636,894.078825 L1813.02503,881.396414 L1795.3838,873.009394 C1785.68133,868.396561 1772.99348,861.945075 1767.18905,858.672769 C1761.38463,855.400463 1753.21706,852.695146 1749.03829,852.660925 C1744.85995,852.626704 1735.97137,855.426118 1729.28593,858.881851 L1717.13041,865.165016 L1714.58068,873.194888 L1712.03138,881.224802 L1704.50504,883.192068 L1696.97912,885.159333 L1687.29185,877.318247 L1677.60416,869.47716 L1669.49653,869.47716 L1661.38904,869.47716 L1658.91783,875.914256 L1656.44662,882.351395 L1650.66127,877.552013 L1644.87593,872.752631 L1638.18711,875.318279 L1631.4983,877.883927 L1617.06943,866.883156 L1602.64055,855.882384 L1595.81332,858.501115 L1588.98609,861.119889 L1573.49671,856.950789 L1558.00737,852.781732 L1543.57883,842.141188 L1529.15029,831.500687 L1517.1659,831.500687 L1505.18147,831.500687 L1484.74161,821.147415 L1464.30171,810.794142 L1461.65055,803.888205 L1458.99934,796.982268 L1461.38506,793.123689 C1462.69724,791.001479 1464.47694,780.603268 1465.34001,770.016567 L1466.90915,750.767981 L1458.74656,742.608862 L1450.58393,734.449701 L1442.14113,733.81676 C1437.49759,733.468642 1431.32379,732.993936 1428.42157,732.761858 C1425.51936,732.529779 1411.92742,725.219308 1398.21727,716.516367 C1384.50713,707.813425 1372.15953,700.691486 1370.77816,700.689841 C1369.39679,700.688237 1367.98157,695.763195 1367.63318,689.745316 L1366.99976,678.803788 L1352.9999,667.121128 L1339,655.438468 L1352.70191,648.355982 L1366.40386,641.273455 L1370.34298,643.706945 L1374.28214,646.140435 L1394.4921,635.857841 L1414.70202,625.575247 L1423.71496,615.663472 C1428.67211,610.211949 1433.90369,601.858517 1435.34074,597.100234 L1437.95354,588.448772 L1427.38311,574.127506 C1421.56939,566.250764 1416.81272,559.274444 1416.81272,558.62454 C1416.81272,557.974636 1422.40489,554.55228 1429.23976,551.019329 L1441.66677,544.59582 L1447.36021,532.977635 L1453.05366,521.359493 L1461.14153,522.092143 C1465.58983,522.495116 1472.75461,520.938967 1477.06318,518.634048 L1484.89704,514.44326 L1482.35547,502.876512 L1479.81389,491.309723 L1487.88592,484.007733 L1495.958,476.705743 L1509.091,487.751749 L1522.22403,498.797755 L1536.84992,502.834443 L1551.47581,506.871131 L1565.31449,528.218761 L1579.15313,549.566391 L1591.16188,555.773688 L1603.17063,561.981027 L1615.16283,559.348202 L1627.15507,556.715378 L1647.57062,567.126333 L1667.98612,577.537287 L1680.65032,590.918677 L1693.31453,604.300067 L1714.75376,601.647832 L1736.19299,598.995598 L1781.41222,610.321617 L1826.63103,621.647635 L1842.29032,614.903984 L1857.94919,608.160333 L1879.0562,605.353155 L1900.16321,602.545976 L1911.39087,596.853303 C1917.56594,593.722311 1923.47885,588.747098 1924.53083,585.797297 L1926.44397,580.434006 L1920.70666,569.069546 L1914.96893,557.705087 L1919.2127,555.083445 L1923.45648,552.461802 L1931.62151,555.052177 L1939.78655,557.64251 L1957.96728,548.518958 C1967.96694,543.500958 1980.00595,535.872202 1984.72084,531.566134 L1993.29324,523.736904 L2003.71714,524.658003 L2014.14105,525.579101 L2015.8465,521.359493 L2017.55237,517.139885 L2004.4065,509.465768 L1991.26106,501.791693 L1972.12586,500.512983 L1952.99025,499.234273 L1946.62818,493.956683 L1940.26652,488.679092 L1940.26652,482.899537 L1940.26652,477.120024 L1956.0495,469.691573 L1971.83248,462.26308 L1972.02497,445.395618 L1972.21789,428.528115 L1964.54085,417.125594 L1956.86423,405.723074 L1974.92634,400.861537 L1992.98803,396 L2016.22896,401.054078 L2039.46946,406.108198 L2062.68717,430.255369 C2075.45691,443.536332 2092.59496,459.393915 2100.77181,465.494413 L2115.63875,476.586244 L2136.5617,481.273216 L2157.48466,485.960188 L2170.24089,495.668367 C2177.25686,501.007901 2187.0598,506.660024 2192.02501,508.228621 L2201.05248,511.080696 L2215.28535,502.686714 L2229.51823,494.292774 L2235.29311,497.860242 L2241.06756,501.42771 L2238.05222,506.304648 L2235.03687,511.181587 L2242.01865,521.832426 L2249,532.483224 L2234.29433,546.346873 L2219.58823,560.210522 L2227.64857,572.432068 C2232.08189,579.153903 2235.72158,587.027144 2235.73678,589.928124 L2235.76464,595.202634 L2229.10791,595.202634 L2222.45118,595.202634 L2209.97272,607.675754 L2197.49426,620.148831 L2192.19302,618.115486 L2186.89178,616.082099 L2174.6113,632.401518 L2162.3304,648.720936 L2146.44527,657.859468 L2130.55971,666.997958 L2126.17325,658.805167 C2123.76072,654.299132 2121.78679,647.706078 2121.78679,644.154012 L2121.78679,637.695649 L2113.90164,633.477518 L2106.0169,629.259387 L2091.52568,644.932994 C2083.55525,653.553443 2073.3441,662.704042 2068.83438,665.267665 L2060.63473,669.928771 L2066.2876,676.73732 C2069.39709,680.482053 2080.13127,688.121738 2090.1419,693.714449 L2108.34332,703.882987 L2114.48039,697.748352 L2120.61789,691.613717 L2139.14309,696.639861 L2157.66871,701.666047 L2147.34443,708.563756 C2141.6658,712.357479 2133.67342,718.3097 2129.5833,721.790877 L2122.14688,728.120289 L2119.42492,739.618341 L2116.70338,751.116436 L2127.0302,755.819738 L2137.35743,760.523039 L2146.21816,778.753434 L2155.07888,796.983787 L2167.85031,804.524817 L2180.62174,812.065847 L2183.03596,818.355005 L2185.4506,824.644162 L2178.85803,828.331761 L2172.26589,832.019361 L2174.71473,835.979632 L2177.16314,839.939903 L2185.48943,839.939903 L2193.81573,839.939903 L2195.86522,845.279269 L2197.91513,850.618634 L2186.00529,893.024725 L2174.09587,935.430816 L2160.07153,952.874423 L2146.04761,970.318029 L2127.82213,976.52541 L2109.59708,982.732791 L2104.62131,976.740273 C2101.885,973.444379 2097.40904,970.747754 2094.67526,970.747754 C2091.94106,970.747754 2087.38448,973.066471 2084.54939,975.900486 L2079.39421,981.053261 L2070.46848,981.174996 L2061.54275,981.296774 L2056.838,989.702613 C2054.2507,994.325827 2047.86541,1003.48406 2042.64818,1010.05425 Z" id="path2384-path" stroke="#979797"></path>
                        <path d="M1170.80037,735 C1170.29955,734.964171 1167.8032,733.540215 1165.25286,731.835349 C1162.70257,730.130483 1158.41045,724.541401 1155.71486,719.415201 L1150.81373,710.094806 L1132.82866,702.12989 C1122.93682,697.74921 1105.02836,690.901141 1093.03201,686.911953 L1071.22045,679.658932 L1052.09243,688.129974 L1032.96441,696.601058 L1030.2855,685.243963 C1028.81207,678.997583 1024.29959,670.089692 1020.25775,665.448649 C1016.21596,660.807607 1010.55496,652.45065 1007.67786,646.877601 L1002.44672,636.744813 L1009.56365,639.478977 L1016.68053,642.213185 L1024.87572,637.822167 L1033.0709,633.43115 L1022.02782,618.936119 L1010.98473,604.441045 L1002.99175,608.723758 L994.998766,613.006427 L994.998766,608.724601 L994.998766,604.442775 L978.282724,595.904986 L961.566639,587.367198 L957.063216,578.942692 L952.559793,570.518229 L957.043957,562.129798 L961.528121,553.741324 L971.702565,551.184742 L981.877008,548.628161 L986.330745,551.383927 L990.784524,554.139694 L995.075044,551.484933 L999.365605,548.830173 L990.970162,537.026187 L982.574718,525.222243 L969.664052,519.868251 L956.753427,514.51426 L940.452235,520.924975 L924.151043,527.335689 L910.567193,514.91436 C903.096059,508.082661 892.487085,499.543564 886.991672,495.938655 L877,489.384279 L877.06452,480.376479 C877.100004,475.422209 878.673939,468.93112 880.56213,465.951865 L883.99522,460.535051 L890.974636,463.216435 L897.954052,465.897776 L902.045828,455.123131 L906.137604,444.348486 L919.373652,437.495902 L932.6097,430.643361 L954.322189,435.750448 C966.264044,438.559334 980.995684,443.367876 987.059177,446.43607 L998.083633,452.014603 L1012.78598,447.9504 L1027.48834,443.886154 L1045.29675,450.176624 L1063.10521,456.467093 L1076.25297,449.660244 L1089.40077,442.853396 L1078.61155,433.562112 L1067.82234,424.270871 L1073.57275,416.397638 L1079.32313,408.524362 L1076.95679,401.060131 L1074.59049,393.595857 L1086.41911,391.11889 C1092.9248,389.756576 1115.39206,383.997506 1136.34629,378.320962 C1157.30051,372.644418 1177.86824,368 1182.05239,368 L1189.6599,368 L1200.98833,376.075921 L1212.3168,384.151841 L1229.03145,387.179109 C1238.22452,388.844062 1249.04775,391.912677 1253.08301,393.998193 L1260.41988,397.79001 L1272.27846,391.650585 L1284.13704,385.511161 L1297.60197,394.046418 C1305.0077,398.740833 1311.06689,404.399065 1311.06689,406.620311 L1311.06689,410.658946 L1331.61945,419.21011 L1352.17201,427.761273 L1356.81657,437.9668 L1361.46113,448.172326 L1375.24574,448.094652 C1382.82729,448.051912 1396.616,448.638835 1405.88733,449.398869 L1422.74429,450.780803 L1445.02705,462.280758 L1467.30986,473.780714 L1471.40378,471.247591 L1475.49775,468.714425 L1484.24887,471.495169 L1493,474.275913 L1483.9929,483.874602 L1474.98584,493.473333 L1477.62468,503.999598 L1480.26355,514.525863 L1473.2484,517.220959 L1466.23324,519.916054 L1462.13371,517.379471 L1458.03423,514.84293 L1449.87132,522.238854 L1441.70838,529.634777 L1441.70838,535.201202 L1441.70838,540.767626 L1429.33288,547.17467 C1422.52637,550.69853 1415.95195,555.210467 1414.72307,557.201137 L1412.48873,560.82056 L1422.90119,574.950257 L1433.31365,589.079911 L1430.69117,597.730393 C1429.24885,602.488137 1424.97434,609.908616 1421.19227,614.220355 C1417.4102,618.532053 1405.23677,626.669193 1394.14017,632.302871 L1373.96449,642.545905 L1369.99535,640.089992 L1366.02621,637.634079 L1356.4571,642.575566 C1351.19406,645.29336 1342.69528,651.338107 1337.57089,656.008347 L1328.25383,664.499641 L1315.75679,659.317199 L1303.25975,654.134758 L1293.99445,657.078866 L1284.72919,660.022933 L1281.31915,654.498995 L1277.90911,648.975015 L1279.9939,645.597813 L1282.07872,642.22061 L1290.25144,646.599603 L1298.42416,650.978595 L1306.14567,646.841359 C1310.39253,644.565898 1316.20418,639.884984 1319.06051,636.439348 L1324.2538,630.174531 L1315.12238,625.281859 L1305.99096,620.389229 L1298.71415,622.294378 L1291.43729,624.199483 L1284.83783,619.368284 L1278.23841,614.537043 L1283.90071,606.784392 L1289.56301,599.031784 L1304.41176,601.820628 L1319.26056,604.609515 L1331.52016,598.26251 L1343.77973,591.915462 L1357.94565,595.982914 L1372.11157,600.050366 L1385.3268,597.568294 L1398.54207,595.086222 L1411.69674,601.896657 C1418.9318,605.6424 1424.85141,607.757788 1424.85141,606.597527 C1424.85141,605.437266 1418.9318,601.423271 1411.69674,597.677527 L1398.54207,590.867092 L1385.3268,593.349164 L1372.11157,595.831236 L1357.94565,591.763784 L1343.77973,587.696332 L1331.72384,593.937902 L1319.66795,600.179471 L1303.12679,597.531377 L1286.58569,594.883282 L1282.02263,603.419299 L1277.45958,611.955358 L1263.12787,620.823083 L1248.7962,629.690807 L1230.41419,621.748886 L1212.03221,613.806965 L1198.13735,596.381706 L1184.24245,578.956489 L1167.15151,578.956489 L1150.06052,578.956489 L1113.82597,561.956687 L1077.59137,544.956927 L1055.33263,549.583161 C1043.09034,552.127591 1032.17251,555.669593 1031.07082,557.454243 L1029.06775,560.699049 L1037.18539,587.540941 C1041.65008,602.303972 1044.78725,614.899256 1044.1568,615.530395 C1043.52635,616.161577 1036.01202,611.692717 1027.45825,605.599534 L1011.90597,594.52107 L1002.39881,599.418425 L992.891645,604.315737 L1002.78934,601.767552 L1012.68703,599.219366 L1030.87085,612.293141 C1040.87192,619.48372 1051.73278,625.366917 1055.00603,625.366917 L1060.95742,625.366917 L1070.85512,614.819092 L1080.75281,604.271268 L1092.08145,604.271268 L1103.41009,604.271268 L1119.31889,616.928657 L1135.2277,629.586046 L1143.21883,629.586046 L1151.20996,629.586046 L1159.57784,643.784979 L1167.94572,657.983912 L1202.63167,673.656418 L1237.31766,689.328924 L1223.62428,695.115207 L1209.93091,700.901449 L1205.30388,711.068412 L1200.67685,721.235376 L1186.19389,728.149854 C1178.2283,731.952809 1171.30119,735.035221 1170.80037,735 Z" id="path2384-path" stroke="#979797"></path>
                    </g>
                </g>
            </g>
        </g>
    </g>
</svg>